<?xml version="1.0" standalone="no"?><!DOCTYPE svg PUBLIC "-//W3C//DTD SVG 1.1//EN" "http://www.w3.org/Graphics/SVG/1.1/DTD/svg11.dtd"><svg class="icon" height="512" viewBox="0 0 1024 1024" version="1.1" xmlns="http://www.w3.org/2000/svg"><path d="M64 947.2l300.8-83.2L396.8 832 185.6 620.8l-32 32L64 947.2 64 947.2 64 947.2zM64 947.2M224 582.4l211.2 211.2L844.8 384 633.6 172.8 224 582.4 224 582.4 224 582.4zM224 582.4M940.8 160l-83.2-83.2c-51.2-51.2-76.8-51.2-128 0l-57.6 57.6 211.2 211.2 57.6-57.6C992 236.8 992 211.2 940.8 160L940.8 160 940.8 160 940.8 160zM940.8 160M364.8 83.2c-51.2-51.2-76.8-51.2-128 0L38.4 281.6 0 249.6l211.2-211.2c51.2-51.2 128-51.2 179.2 0l115.2 115.2L467.2 185.6 364.8 83.2 364.8 83.2 364.8 83.2 364.8 83.2zM364.8 83.2M121.6 300.8 192 230.4l38.4 38.4L160 339.2 153.6 332.8 192 371.2l108.8-108.8 38.4 38.4L230.4 409.6l12.8 12.8L204.8 454.4 38.4 281.6l38.4-38.4L121.6 300.8 121.6 300.8 121.6 300.8zM121.6 300.8M614.4 793.6l108.8 108.8 51.2 51.2 166.4-166.4c51.2-51.2 51.2-76.8 0-128L832 550.4 864 512l121.6 121.6c51.2 51.2 51.2 128 0 179.2l-179.2 179.2L774.4 1024l-38.4-38.4-172.8-172.8 38.4-38.4L614.4 793.6 614.4 793.6 614.4 793.6 614.4 793.6zM614.4 793.6M755.2 723.2 652.8 832l-38.4-38.4 108.8-108.8L755.2 723.2 755.2 723.2 755.2 723.2zM755.2 723.2M774.4 774.4l38.4 38.4-89.6 89.6-38.4-38.4L774.4 774.4 774.4 774.4 774.4 774.4zM774.4 774.4" /></svg>